<svg class="w-20 h-12 fill-current max-w-full pr-2 inline-block" fill="#6b6b6b"  width="796" height="199"  viewBox="0 0 796 199" xmlns="http://www.w3.org/2000/svg">
<path d="M30.4979 196.773H0V2.96274L30.4979 4.92941V196.773Z"></path>
<path d="M80.4245 196.773H49.9265V58.5481L80.4245 60.2694V196.773ZM65.1754 16.4894C74.7677 16.4894 82.6379 24.3601 82.6379 33.9521C82.6379 43.5454 74.7677 51.4161 65.1754 51.4161C55.5833 51.4161 47.713 43.5454 47.713 33.9521C47.713 24.3601 55.5833 16.4894 65.1754 16.4894Z"></path>
<path d="M153.225 86.3397V116.838H130.352V196.64H99.8536V45.02C99.8536 21.9013 119.038 0.994665 141.665 0.994665C149.289 0.994665 155.439 3.20933 156.915 4.192L155.684 33.46H141.665C135.516 33.46 130.352 38.6253 130.352 45.02V86.3397H153.225Z"></path>
<path d="M196.06 112.902H218.933V98.6383C218.933 92.2424 213.768 87.0779 207.619 87.0779C201.224 87.0779 196.06 92.2424 196.06 98.6383V112.902ZM165.561 98.6383C165.561 75.5173 184.253 56.58 207.619 56.58C230.739 56.58 249.431 75.5173 249.431 98.6383V128.153C249.431 136.76 242.544 143.4 234.183 143.4H196.06V156.683C196.06 163.076 201.224 168.242 207.619 168.242H236.888L237.872 194.068L210.325 198.248C183.761 202.676 165.561 179.801 165.561 156.683V98.6383Z"></path>
<path d="M275.511 196.773V4.19209H295.188V62.7281C300.599 61.0068 309.207 60.2694 315.109 60.2694C336.016 60.2694 352.248 79.2076 352.248 100.606V196.773H333.064V100.606C333.064 90.0294 324.456 81.667 313.88 81.667H295.188V196.773H275.511Z"></path>
<path d="M424.232 159.635V126.43H405.293C394.719 126.43 386.356 134.794 386.356 145.368V159.635C386.356 170.209 394.719 178.817 405.293 178.817C415.871 178.817 424.232 170.209 424.232 159.635ZM424.232 97.408C424.232 86.3398 419.067 77.4851 405.048 78.9622H405.293C397.423 79.2075 387.34 80.1914 378.977 80.6831C378.732 73.5503 378.485 70.845 378.24 65.4347C384.88 62.9747 394.472 60.5147 402.589 60.2694C427.184 59.7774 443.417 79.6998 443.417 101.097V159.635C443.417 180.785 426.447 198.248 405.293 198.248C384.143 198.248 366.68 180.785 366.68 159.635V147.583C366.68 126.43 381.191 110.444 405.293 110.444C414.395 110.444 419.067 111.428 424.232 112.902V97.408Z"></path>
<path d="M498.519 60.2694C519.672 60.2694 537.133 77.4851 537.133 98.8836V101.344C529.509 101.59 523.36 101.59 517.704 101.835V98.8836C517.704 88.5539 509.095 79.946 498.519 79.946C488.189 79.946 479.825 88.5539 479.825 98.8836V160.372C479.825 171.193 488.189 179.311 498.519 179.311C508.849 179.311 517.457 171.44 517.704 161.109C527.295 161.848 536.396 162.34 537.133 162.34C536.149 182.753 518.933 198.987 498.519 198.987C477.368 198.987 460.149 181.769 460.149 160.372V98.8836C460.149 77.4851 477.368 60.2694 498.519 60.2694Z"></path>
<path d="M614.655 196.773L577.271 131.595C573.58 125.201 573.58 124.463 578.008 116.838L610.965 62.2374H633.348L596.208 125.201L636.299 196.773H614.655ZM572.351 4.68408V196.773H552.675V4.68408H572.351Z"></path>
<path d="M660.119 119.789H697.996V99.1288C697.996 88.5539 689.387 79.946 679.057 79.946C668.481 79.946 660.119 88.5539 660.119 99.1288V119.789ZM640.443 99.1288C640.443 77.732 657.66 60.2694 679.057 60.2694C700.208 60.2694 717.427 77.732 717.427 99.1288V129.382C717.427 135.04 712.999 139.22 707.588 139.22H660.119V160.125C660.119 170.701 668.481 179.311 679.057 179.311H703.899C704.144 185.704 704.391 190.134 704.883 194.559L681.271 198.248C657.168 202.429 640.443 181.524 640.443 160.125V99.1288Z"></path>
<path d="M754.361 196.773H734.684V100.851C734.684 79.4529 751.409 59.5321 776.004 60.0227C784.367 60.2694 789.532 62.2374 795.189 64.9427C794.943 70.845 794.697 75.7643 794.452 80.1914L773.053 79.6998C762.723 79.6998 754.361 90.768 754.361 100.851V196.773Z"></path>
</svg>