<svg class="w-24 h-12 inline-block" xmlns="http://www.w3.org/2000/svg" viewBox="0 0 720 480" style="enable-background:new 0 0 720 480" xml:space="preserve" fill="#6b6b6b"><linearGradient id="ziffmedia-logo" gradientUnits="userSpaceOnUse" x1="383.429" y1="524.27" x2="62.813" y2="-31.054"><stop offset="0" style="stop-color:#0096ff"></stop><stop offset=".45" style="stop-color:#7d46b9"></stop><stop offset="1" style="stop-color:#e10046"></stop></linearGradient><path fill="url(#ziffmedia-logo)" d="M259.12 59.78H39.25l9.26 14.51H245.2l13.92-14.51zm187.62 386.86H124.86l25.52-26.42h279.5l-19.15-30.01H179.37l.04-.05 25.49-26.38h188.97l-19.15-30.01H233.9l179.95-186.21c11.67-12.08 3.37-31.36-13.3-31.36h-49.13l24.23-25.08c11.67-12.08 3.37-31.36-13.3-31.36h-49.06l24.23-25.08c11.67-12.08 3.37-31.36-13.3-31.36H3.24l9.26 14.51h306.17L24.07 324.87c-14.35 14.95-4.01 38.92 16.6 38.92h19.01l28.8-30.01H48.51l196.23-203.06h38.59l13.92-14.51h-38.49l40.51-41.92h57.53L62.2 381.3c-14.35 14.95-4.01 38.92 16.6 38.92h19.08l28.8-30.01h-40l25.52-26.42h39.82l28.8-30.01h-39.63l196.2-203.06h57.59L100.4 437.73c-14.35 14.95-4.01 38.92 16.6 38.92h348.9l-19.16-30.01zM191.05 130.72l13.92-14.51H75.27l9.26 14.51h106.52z"></path><path d="M540.64 116.21h3.32V94.79h-3.32v21.42zm-52.37 0h14v-2.98h-10.68v-6.31h9.11v-2.98h-9.11v-6.15h10.68v-2.98h-14v21.4zm33.37-21.42h-7.69v21.41h7.69c2.74 0 4.68-.86 6.22-2.77 1.6-1.97 1.66-4.43 1.66-7.94s-.06-5.97-1.66-7.94c-1.55-1.89-3.49-2.76-6.22-2.76zm3.38 16.96c-.92 1.08-2.18 1.48-3.75 1.48h-4V97.78h4c1.57 0 2.83.4 3.75 1.48 1.08 1.2 1.17 2.98 1.17 6.25 0 3.25-.09 5.04-1.17 6.24zm-59.08-3.32-6.4-13.63h-3.32v21.41h3.32v-14.15l5.17 10.68h2.46l5.05-10.68v14.15h3.32V94.79h-3.32l-6.28 13.64zm217.63.24c0 2.92-1.82 4.74-4.55 4.74-2.74 0-4.52-1.82-4.52-4.74V94.79h-3.32v14.03c0 4.52 3.38 7.57 7.85 7.57s7.88-3.05 7.88-7.57V94.79h-3.32v13.88zM560.82 94.79l-7.85 21.41h3.53l1.72-5.02h7.87l1.73 5.02h3.53l-7.85-21.41h-2.68zm-1.64 13.57 2.96-8.61 2.97 8.61h-5.93zm92.65-13.75c-2.4 0-4.25.8-5.66 2.21-2.15 2.15-2.22 4.09-2.22 8.68 0 4.58.06 6.52 2.22 8.68 1.42 1.42 3.26 2.22 5.66 2.22 2.4 0 4.25-.8 5.66-2.22 2.15-2.15 2.22-4.09 2.22-8.68 0-4.58-.06-6.52-2.22-8.68-1.41-1.41-3.26-2.21-5.66-2.21zm3.26 17.45c-.83.86-1.94 1.35-3.26 1.35-1.32 0-2.43-.49-3.26-1.35-1.08-1.17-1.29-2.22-1.29-6.55s.22-5.42 1.29-6.58c.83-.86 1.94-1.32 3.26-1.32 1.32 0 2.43.46 3.26 1.32 1.11 1.14 1.29 2.25 1.29 6.58s-.18 5.41-1.29 6.55zm52.38-17.27h-8.31v21.41h3.32v-8.15h4.98c4.28 0 7.02-2.8 7.02-6.62s-2.74-6.64-7.01-6.64zm-.19 10.28h-4.8v-7.29h4.8c2.34 0 3.88 1.32 3.88 3.66 0 2.31-1.54 3.63-3.88 3.63zm-108.87 2.12h4.68v1.23c0 1.42-.28 2.52-1.08 3.45-.86 1.02-2.15 1.54-3.6 1.54-1.32 0-2.43-.46-3.26-1.32-1.08-1.17-1.29-2.25-1.29-6.58s.22-5.42 1.29-6.58c.83-.86 1.94-1.32 3.26-1.32 2.46 0 4.06 1.38 4.61 3.78h3.32c-.58-3.72-3.32-6.77-7.94-6.77-2.4 0-4.25.8-5.66 2.21-2.12 2.15-2.21 4.09-2.21 8.68 0 4.58.09 6.52 2.21 8.68 1.42 1.42 3.26 2.22 5.66 2.22 2.31 0 4.4-.77 6.03-2.49 1.45-1.57 1.97-3.32 1.97-6.18v-3.35h-8v2.8zm34.91-5.99c0-3.72-2.65-6.4-6.8-6.4h-8.49v21.41h3.32v-8.74h4.15l4.37 8.74h3.87l-4.79-9.2c2.46-.68 4.37-2.68 4.37-5.81zm-11.97 3.44v-6.86h4.92c2.22 0 3.72 1.29 3.72 3.45 0 2.15-1.51 3.42-3.72 3.42h-4.92z"></path><path d="M530.65 14.08h17.34v49.43h-17.34v10.73h47.28V63.51h-17.34V14.08h17.34V3.34h-47.28v10.74zM506.03 3.34H457.1v10.98h39.25l-40.51 48.49c-3.8 4.55-.56 11.48 5.37 11.47l51.28-.05V63.26h-41.57l40.47-48.44c3.81-4.56.57-11.48-5.36-11.48zm210.73 10.99V3.34H672.1a6.99 6.99 0 0 0-6.99 6.99v63.91h12.79V45.58h34.74V34.6H677.9V14.33h38.86zm-120.18-4v63.91h12.79V45.58h34.74V34.6h-34.74V14.33h38.86V3.34h-44.66a6.99 6.99 0 0 0-6.99 6.99z"></path></svg>