<svg class="w-24 h-12 fill-current max-w-full pr-2 inline-block" xmlns="http://www.w3.org/2000/svg" viewBox="0 0 402.1 116.8" fill="#6b6b6b"><path d="M206.8 68.7v-21h56.4a10.39 10.39 0 0 1 10.4 10.4v25a23.37 23.37 0 0 1-23.3 23.5h-36.1a48.25 48.25 0 1 1 0-96.5h55.9v22.2h-55.9a26.1 26.1 0 1 0 0 52.2h37.2V68.8h-44.6zM158.4 9.9h-21.9v86.4a10.29 10.29 0 0 0 10.3 10.3h11.6V9.9zM376.9 10h-11.8v74.5a1.42 1.42 0 0 1-.2.6 1.56 1.56 0 0 1-1.3.7 1.73 1.73 0 0 1-1.4-.8l-36.8-64.7a23.31 23.31 0 0 0-20.1-11.4h-.4a23.26 23.26 0 0 0-23.3 23.3v64.1a10.29 10.29 0 0 0 10.3 10.3h11.7V32.2a1.52 1.52 0 0 1 2.8-.8l37.1 65.1a22.71 22.71 0 0 0 19.9 11.1h.4a23.26 23.26 0 0 0 23.3-23.3V20.2A10.24 10.24 0 0 0 376.9 10zM398.2 15.2a1.32 1.32 0 0 0 .9-1.3 1.6 1.6 0 0 0-1.7-1.6h-2v5.2h.9v-2.1h.8l1 2.1h1.1zm-.9-.4h-1v-1.7h1a.88.88 0 0 1 .9.8 1.18 1.18 0 0 1-.9.9z"></path><path d="M397.1 10a5 5 0 0 0 0 10 5 5 0 0 0 0-10zm0 9a4.1 4.1 0 1 1 4-4.1 3.91 3.91 0 0 1-4 4.1zM26.2 37.2a38.42 38.42 0 0 1 11-11 123.54 123.54 0 0 1 2.6-15.6 51.77 51.77 0 0 0-29.2 29.2 123.54 123.54 0 0 1 15.6-2.6zM79.6 26v.1a38.42 38.42 0 0 1 11 11 123.54 123.54 0 0 1 15.6 2.6 51.36 51.36 0 0 0-29.3-29.2A141.35 141.35 0 0 1 79.6 26zM37.2 90.5a38.42 38.42 0 0 1-11-11h-.1c-5.8-.7-11-1.6-15.5-2.6a51.65 51.65 0 0 0 29.2 29.3 146.75 146.75 0 0 1-2.6-15.7zM90.7 79.5h-.1a38.42 38.42 0 0 1-11 11v.1c-.7 5.7-1.6 10.9-2.6 15.5a51.53 51.53 0 0 0 29.3-29.3 119.62 119.62 0 0 1-15.6 2.7zM48.9 0h19c4.1 9 5.8 22.4 6.3 26.9a17.09 17.09 0 0 1 .3 3.1L58.4 44.3 42.3 29.9c0-.8.1-1.7.2-2.7.6-4.6 2.2-18.2 6.4-27.2zm-6.6 86.8c0 .8.1 1.7.2 2.7.5 4.6 2.1 18.2 6.3 27.3h19c4.1-9 5.8-22.4 6.3-26.9a17.09 17.09 0 0 0 .3-3.1l-16-14.4zM30 42.3c-.8 0-1.7.1-2.7.2-4.6.5-18.2 2.1-27.3 6.3v19c9 4.2 22.4 5.8 26.9 6.3a17.09 17.09 0 0 0 3.1.3l14.4-16zm86.8 6.5c-9.1-4.2-22.7-5.8-27.3-6.3a12.74 12.74 0 0 0-2.7-.2L72.5 58.4l14.4 16.1a17.09 17.09 0 0 0 3.1-.3c4.5-.5 17.9-2.2 26.9-6.3V48.8z"></path></svg>