<svg class="w-32 h-12 fill-current max-w-full pr-2 inline-block" xmlns="http://www.w3.org/2000/svg" viewBox="0 0 1137.5 130.9" fill="#6b6b6b"><path d="m206.3 109 11.5-13.7c10.4 9 21 14.2 34.4 14.2 11.8 0 19.3-5.6 19.3-13.7v-.3c0-7.8-4.4-12-24.6-16.7-23.2-5.6-36.3-12.5-36.3-32.6v-.3c0-18.7 15.6-31.6 37.2-31.6 15.9 0 28.5 4.8 39.6 13.7l-10.3 14.5c-9.8-7.3-19.6-11.2-29.6-11.2-11.2 0-17.8 5.8-17.8 12.9v.3c0 8.4 5 12.2 26 17.1 23.1 5.6 34.9 13.9 34.9 31.9v.3c0 20.4-16 32.6-39 32.6a66.91 66.91 0 0 1-45.3-17.4M348.5 72.5C363 72.5 372 64.4 372 53v-.3c0-12.8-9.2-19.5-23.5-19.5h-22.3v39.3zm-41.4-56.7h43c25.6 0 41.4 14.5 41.4 36.5v.3c0 24.5-19.6 37.2-43.6 37.2h-21.7v35.1H307V15.8zM408 15.8h80.9v17.1h-61.7v28.4h54.7v17.1h-54.7v29.3h62.5v17.2H408V15.8zM509.3 15.8h80.9v17.1h-61.7v28.4h54.6v17.1h-54.6v29.3h62.4v17.2h-81.6V15.8zM629.7 33.3v74.2h21.5c22.9 0 37.9-15.4 37.9-36.8v-.3c0-21.3-15-37.1-37.9-37.1zm-19.1-17.5h40.7c34.3 0 58 23.5 58 54.2v.3c0 30.7-23.7 54.5-58 54.5h-40.7v-109zM754.5 33.6h-34.6V15.8h88.5v17.8h-34.6v91.3h-19.3V33.6zM828.7 15.8h80.8v17.1h-61.7v28.4h54.7v17.1h-54.7v29.3h62.5v17.2h-81.6V15.8zM925.7 109l11.5-13.7c10.4 9 21 14.2 34.4 14.2 11.8 0 19.3-5.6 19.3-13.7v-.3c0-7.8-4.4-12-24.6-16.7-23.2-5.6-36.3-12.5-36.3-32.6v-.3c0-18.7 15.6-31.6 37.2-31.6 15.9 0 28.5 4.8 39.6 13.7l-10.3 14.5c-9.8-7.3-19.6-11.2-29.6-11.2-11.2 0-17.8 5.8-17.8 12.9v.3c0 8.4 5 12.2 26 17.1 23.1 5.6 34.9 13.9 34.9 31.9v.3c0 20.4-16 32.6-39 32.6a66.91 66.91 0 0 1-45.3-17.4M1057.3 33.6h-34.5V15.8h88.5v17.8h-34.6v91.3h-19.4V33.6z"></path><path d="M175.9 268.4a76.7 76.7 0 1 0-108.4 0l10.9-10.9a61.25 61.25 0 1 1 86.7 0l10.8 10.9z" transform="translate(-45 -137.5)"></path><path d="M74.6 92.1 61 78.5l43.6-38.1 8.1 8.1-38.1 43.6z"></path><path d="M1129.1 24.5c1.3 0 2.2-.7 2.2-1.8s-.8-1.7-2.2-1.7h-2.7v3.5zm-4.5-5.2h4.7a4.31 4.31 0 0 1 3 1 3.17 3.17 0 0 1 .9 2.3 3.14 3.14 0 0 1-2.5 3.2l2.8 4h-2.2l-2.6-3.7h-2.3v3.7h-1.8l-2.7-10.5z"></path><path d="M1128.5 15.7a9 9 0 1 0 9 9 9 9 0 0 0-9-9m0 1.2a7.7 7.7 0 1 1-7.7 7.7 7.7 7.7 0 0 1 7.7-7.7"></path></svg>