<svg class="w-24 h-12 fill-current max-w-full pr-2 inline-block" xmlns="http://www.w3.org/2000/svg" viewBox="0 0 1998.1 400" fill="#6b6b6b"><path d="M124.9 99.43c-68 0-107.15 34.72-109.95 97.78l-.16 2.45 25.06-2.8.08-1.77c2.62-46.6 33.51-73.33 84.75-73.33 63.53 0 76.53 42.14 76.53 53.44 0 45-3.09 50.21-95.36 56.73C60.39 235.65 0 248.59 0 317.54c0 53.52 33.51 82.22 96.73 82.22 55.91 0 88.85-30 104.06-57.82v57.82h25.42V175.2c0-34.58-17.8-75.77-101.31-75.77zm75.89 202.9c0 3.05-1.25 74.68-103.52 74.68-44.48 0-72.15-22.79-72.15-59.47 0-38 23.31-57.51 75.67-63.33 10.4-1.4 21.23-2.31 31.63-3.18 27.79-2.34 53.16-4.55 68.37-16zM385.5 234.7l-8.87-1.9c-43-9.11-83.55-17.72-83.55-58.21 0-25.32 20.84-52.37 79.33-52.37 30.16 0 80.86 9.5 81.52 70.39v2.47h24.08v-2.88c0-59.54-37.36-92.32-106.12-92.32-24.5 0-104.17 5.39-104.17 74.72 0 62.34 57.37 73.92 99.17 82.37l7.57 1.52c45.06 9.09 87.67 17.67 87.67 61.34 0 53.69-67 57.87-87.56 57.87-52.45 0-88.33-32.16-91.42-81.1l-.12-2.51h-25l.05 2.7c1.59 63.36 46.24 103 116.53 103 29.18 0 55.77-5.69 74.87-16.28 25.08-13.91 37.8-35.31 37.8-63.73 0-61.2-46.07-74.71-101.78-85.08zM627.09 216.76l137.26-117.2H726.8L545.02 257.62V0h-25.95v399.6h25.95V289.73l62.61-53.76L729.38 399.6h34.59L627.09 216.76zM1092.31 99.87c-40 0-74 19.24-93.64 53-11.69-33.29-43.94-53-86.8-53-39.6 0-74.28 24.2-89.85 57.71v-58h-25.95v300h25.95V215.33c0-21.73 6.59-92.61 89.66-92.61 19.81 0 66 7.52 66 77.15V399.6h27.24l.15-195.2c0-69.43 68.36-82.2 87.8-81.63 17 .5 66.44 5.37 66.44 77.1V399.6h25.95V200.43c.03-63.91-34.05-100.56-92.95-100.56zM1343.38 99.87c-33.35 0-62.53 11.73-84.41 33.91-27.73 28.13-43.25 72.29-42.55 121.07-.64 45.12 13.28 84.43 39.17 110.69 22.23 22.54 52.59 34.46 87.79 34.46 68.9 0 113-36.68 124.19-103.78l.4-2.17h-25.12l-.32 1.43c-9.78 51.63-46.84 82.31-99.15 82.31-26.92 0-50.43-8.9-68-26.75-21.79-22.15-34.09-57-33.9-95.06h228.21l.09-2.6c2.32-48.52-10.79-90.93-36.91-118.32-22.25-23.35-52.37-35.19-89.49-35.19zM1241.51 238.2c2.66-27.92 13.39-56.63 29.6-78 13.39-17.65 36.8-38.46 72.27-38.46 47.72 0 99.17 40.33 101.52 116.47zM1630.76 99.93c-46.49 0-87.38 25.66-103 64.45V99.56h-25.95v300h25.95V224.54c0-66.61 35-101.82 101.83-101.82 33.14 0 56.09 11.75 68.61 34.94 10.11 18.69 11.19 40.49 11.19 57.39V399.6h26V218.99c0-32.57.26-119.06-104.63-119.06zM1909.38 50.96h-21.59v37.81h-37.81v21.59h37.81v37.8h21.59v-37.8h37.8V88.77h-37.8V50.96z"></path><path d="M1898.59.04a99.52 99.52 0 1 0 99.52 99.52A99.53 99.53 0 0 0 1898.59.04zm0 183.34a83.82 83.82 0 1 1 83.81-83.82 83.82 83.82 0 0 1-83.81 83.82z"></path></svg>