<svg class="w-32 h-12 fill-current max-w-full pr-2 inline-block" data-name="Layer 1" xmlns="http://www.w3.org/2000/svg" viewBox="0 0 548 169" fill="#6b6b6b"><g data-name="Group 2"><path data-name="Compound Path" d="M65.4 28.9h-.8c-10.4 0-19.4 3.5-25.7 9.8S28.7 54 28.7 64.9c0 10.5 3.8 19.4 10.1 25.6s15.3 9.7 25.7 9.7c21.1-.3 36.3-14.7 36.3-35.8 0-10.7-3.7-19.5-9.8-25.9-6.4-6.1-15.2-9.6-25.6-9.6zm-.7 58.9h-.3C51.3 87.7 42.7 77.7 42.7 64c0-12.8 8.7-22.8 21.9-22.9 13.4 0 21.9 10 22.1 22.9 0 13.8-8.7 23.8-22 23.8zm74.6-61.6a45.1 45.1 0 0 0-7.3-.7c-7 0-11.7 2.1-14.2 6-2.7 3.8-3.2 9.2-3.2 15.5v5.5h-9.3v11.2h9.3v35.4h12.9V63.6h10.4V52.4h-10.4v-7.3a13.64 13.64 0 0 1 1.1-6c.8-1.4 2.2-2.4 5.2-2.4a17.56 17.56 0 0 1 4.5.7h.3l.7.1.8-11.2-.8-.1zm38.1 0a45.1 45.1 0 0 0-7.3-.7c-7 0-11.7 2.1-14.2 6-2.7 3.8-3.2 9.1-3.2 15.5v5.5h-9.3v11.2h9.3v35.4h12.9V63.6H176V52.4h-10.5v-7.3a13.64 13.64 0 0 1 1.1-6c.8-1.4 2.2-2.4 5.2-2.4a17.56 17.56 0 0 1 4.5.7h.3l.7.1.8-11.2zm85.5 25.6a15.39 15.39 0 0 0-4.2-.7 15.82 15.82 0 0 0-12.7 6.3v-5.2h-12.9v46.6H246v-25a11.61 11.61 0 0 1 2-6c1.5-2.4 4.2-4.4 9.3-4.4a22.55 22.55 0 0 1 5.2.8h.3l.7.1V51.9l-.6-.1zm43.9 32.3a12.25 12.25 0 0 0-4.1-9.8 19.67 19.67 0 0 0-8.7-3.9l-.1.6.1-.6c-3.1-.7-6-1.3-8.2-2a7.45 7.45 0 0 1-2.5-1.3 2.34 2.34 0 0 1-.8-1.8 3.37 3.37 0 0 1 1.8-3 7.56 7.56 0 0 1 3.9-1c3.7 0 6 1.4 8.2 4.2l.1.1.4.6.7-.6 8-7.3-.4-.6c-3.9-5.2-10.5-7.2-16.7-7.2-4.6 0-9.4 1.1-12.9 3.7a13.84 13.84 0 0 0-6 11.7c0 4.5 1.7 7.6 4.1 9.6s5.6 3 8.7 3.8a58 58 0 0 1 8.2 2.1c2.2.8 3.2 1.8 3.4 3.7v.1a3.4 3.4 0 0 1-2.1 3.1 10 10 0 0 1-4.5 1.1c-4.5 0-7.2-2.1-10.1-5.2l-.1-.1-.4-.4-8.7 8.2.6.6c4.8 5.3 11 7.2 18.1 7.2 4.6 0 9.7-1 13.5-3.4a13.76 13.76 0 0 0 6.5-12.2z"></path><path data-name="Compound Path 2" d="M319.2 86.4a6.12 6.12 0 0 0-5.9 5.9 5.9 5.9 0 0 0 11.8 0 6 6 0 0 0-5.9-5.9zm33.3-27.2a12.78 12.78 0 0 1 10.8 5.2l.1.1.1-.1 6-5.3-.1-.1a24.09 24.09 0 0 0-33.6-.4c-4.1 4.1-6.3 10-6.3 16.7s2.2 12.7 6.3 16.7a22.77 22.77 0 0 0 16.6 6.5c6.5 0 12.5-2.1 16.7-7.2l.1-.1-5.8-5.5-.1.3c-2.7 3.7-6.2 5.3-11 5.3-8.7 0-14.6-7.2-14.6-16s5.1-16.1 14.8-16.1zm41.3-7.1a24.05 24.05 0 0 0-16.9 6.5 23.23 23.23 0 0 0-6.7 16.9 23.64 23.64 0 0 0 6.7 16.9 24.05 24.05 0 0 0 16.9 6.5 24.05 24.05 0 0 0 16.9-6.5 23.23 23.23 0 0 0 6.7-16.9 23.64 23.64 0 0 0-6.7-16.9 23.88 23.88 0 0 0-16.9-6.5zm0 39.3c-9.3 0-15.3-7-15.3-16s6-16 15.3-16 15.3 7 15.3 16-6 16-15.3 16zm89.9-33.7c-2.7-3.2-6.9-5.1-13.2-5.1-6.6 0-10.7 3.1-13.8 8.2-1.5-3.1-4.8-8.2-13.9-8.2-7 0-12.4 3.8-14.6 8 0-2.2-.1-4.5-.1-6.6v-.3h-7.5v.3c0 3 .4 6.3.4 10.4V98h7.7V76.5c0-10 4.1-16.6 13.4-16.6 5.9 0 8.2 3.5 8.2 13.2v25h7.7V72.6c0-7.7 5.1-12.7 11.1-12.7 8.4 0 10.4 5.8 10.4 11.8V98h7.7V71.2c.1-5.6-.9-10.3-3.5-13.5z"></path><path data-name="Compound Path 3" d="m215.7 78.6-.3.6-.1.1a13.87 13.87 0 0 1-9.1 9 15.94 15.94 0 0 1-3 .6 10.52 10.52 0 0 1-10.4-5.8l32.5-10.5-1.3-3.7c-4.1-12.8-12.9-19.3-23.1-18.4a25.54 25.54 0 0 0-5.5 1.1c-11.4 3.7-18.7 13.6-17.7 25a20.14 20.14 0 0 0 1.3 5.9 23.62 23.62 0 0 0 25.2 16.7 28.82 28.82 0 0 0 6.5-1.3A23.61 23.61 0 0 0 226.4 83l.1-.1.3-.6zM189.8 73c-.4-5.3 2-9.4 7.5-11.2a11.43 11.43 0 0 1 3.2-.7c4.5-.3 7.9 1.7 9.6 6L190 73.7a1.45 1.45 0 0 1-.2-.7z"></path></g><path d="M505.64 52.35a8.39 8.39 0 1 1-8.37-8.17 8.21 8.21 0 0 1 8.37 8.17zm-14.69 0a6.32 6.32 0 0 0 6.37 6.52 6.25 6.25 0 0 0 6.23-6.47 6.3 6.3 0 1 0-12.6 0zm5 4.28h-1.89v-8.16a16.41 16.41 0 0 1 3.14-.25 5.16 5.16 0 0 1 2.83.59 2.27 2.27 0 0 1 .8 1.8 2.1 2.1 0 0 1-1.69 1.89v.1a2.43 2.43 0 0 1 1.49 2 6.17 6.17 0 0 0 .6 2h-2a6.93 6.93 0 0 1-.65-2c-.15-.89-.65-1.29-1.69-1.29H496zM496 52h.9c1 0 1.89-.35 1.89-1.19s-.55-1.25-1.74-1.25a4.55 4.55 0 0 0-1.05.1z"></path></svg>