<svg class="w-32 h-12 fill-current max-w-full pr-2 inline-block" xmlns="http://www.w3.org/2000/svg" viewBox="0 0 365 62.7" fill="#6b6b6b"><path d="M53.8 61.5V20.9L38.4 61.5h-7L15.8 20.9v40.6H0V.2h22L34.9 34 47.7.2h22v61.3H53.8zM101.1 61.5v-4.4c-2.8 3.3-8.1 5.5-13.8 5.5C80.5 62.6 72 57.9 72 48c0-10.8 8.5-14.4 15.3-14.4 5.9 0 11.1 1.9 13.8 5.2v-4.4c0-3.9-3.3-6.5-9-6.5a19.12 19.12 0 0 0-12.4 4.8l-5.2-9.8C80.2 18 87.9 16 94.7 16c10.7 0 20.7 4 20.7 17.8v27.8h-14.3zm0-11.4v-4C99.6 44 96.3 43 93.2 43c-3.7 0-7.1 1.7-7.1 5.2s3.4 5.1 7.1 5.1c3.1 0 6.5-1.1 7.9-3.2M116.3 55.7l5.9-10.1c3.3 2.9 10.4 6 15.6 6 4.2 0 6-1.2 6-3.1 0-5.5-25.8.2-25.8-17.8 0-7.8 6.8-14.6 19-14.6a31 31 0 0 1 18.6 5.9l-5.4 10a19.78 19.78 0 0 0-13.1-4.9c-3.3 0-5.5 1.3-5.5 3 0 4.9 25.8-.2 25.8 18 0 8.5-7.4 14.5-20.1 14.5-8.1 0-16.3-2.6-21-6.9M189.3 61.5V35.6c0-5.4-2.9-7.2-7.4-7.2a11.21 11.21 0 0 0-8.6 4.3v28.7h-14.2V0h14.2v22.4a20.23 20.23 0 0 1 15.4-6.5c10.1 0 14.7 5.7 14.7 13.9v31.6h-14.1zM234.5 61.5v-4.4c-2.8 3.3-8.1 5.5-13.8 5.5-6.8 0-15.3-4.7-15.3-14.6 0-10.8 8.5-14.4 15.3-14.4 5.9 0 11.1 1.9 13.8 5.2v-4.4c0-3.9-3.3-6.5-9-6.5a19.12 19.12 0 0 0-12.4 4.8l-5.2-9.8c5.7-4.9 13.4-6.9 20.2-6.9 10.7 0 20.7 4 20.7 17.8v27.8h-14.3zm0-11.4v-4c-1.5-2.1-4.8-3.1-7.9-3.1-3.7 0-7.1 1.7-7.1 5.2s3.4 5.1 7.1 5.1c3.2 0 6.5-1.1 7.9-3.2M253.6 61.5V.1h14.2v22.2A16.43 16.43 0 0 1 281 16c11.1 0 19.6 8.7 19.6 23.3 0 15.1-8.6 23.4-19.6 23.4a16.87 16.87 0 0 1-13.2-6.3v5.1zm22.6-11.4c5.6 0 9.8-4.1 9.8-10.8s-4.2-10.8-9.8-10.8a11.57 11.57 0 0 0-8.5 4.1v13.6c1.8 2.4 5.5 3.9 8.5 3.9M302.5.2h14.2v61.4h-14.2zM318.7 39.3c0-12.9 9.7-23.3 23.6-23.3 13.2 0 22.7 9.7 22.7 24.8V44h-31.6c1 4 4.7 7.3 11.1 7.3 3.1 0 8.3-1.4 10.9-3.8l6.2 9.3c-4.4 4-11.8 5.9-18.6 5.9-13.8-.1-24.3-9-24.3-23.4m23.6-11.9c-6.2 0-8.6 3.7-9.1 6.9h18.3c-.4-3.1-2.7-6.9-9.2-6.9"></path></svg>