<svg class="w-32 h-12 fill-current max-w-full pr-2 inline-block" xmlns="http://www.w3.org/2000/svg" viewBox="0 0 987.28 138.15" fill="#6b6b6b"><path d="M436.51 16.7h-75.76a3.26 3.26 0 0 0-3.25 3.25v92S341 88.5 337.75 83.29a37.37 37.37 0 0 0 12.05-10.42c3.91-5.22 5.86-12.06 5.74-20.2v-.32c.12-10.1-3.14-18.57-9.33-24.43a36 36 0 0 0-13.68-8.47 54.37 54.37 0 0 0-19.85-2.75h-44a3 3 0 0 0-3.24 2.74 2.26 2.26 0 0 0 0 .26 3 3 0 0 0-3-3h-76.76c2.28-3.81 8.15-11.62 8.15-11.62a4.86 4.86 0 0 0 .65-2 2.89 2.89 0 0 0-.33-1.63c-.65-1-2.93-1.45-2.93-1.45h-32a3.89 3.89 0 0 0-2.54 1.25s-22.1 32-26.58 38.74c-4.18-5.4-14.42-21.74-14.42-21.74a3.35 3.35 0 0 0-2.88-1.6H82.93a2.9 2.9 0 0 0-2.24 1 2.9 2.9 0 0 0-2.24-1H3.2a3.21 3.21 0 0 0-3.2 3.2v95.4a3.28 3.28 0 0 0 3.26 3.27h74.77c-3.27 4.89-9.47 14.36-9.47 14.36a4.59 4.59 0 0 0-.65 2 3 3 0 0 0 .32 1.63 3.45 3.45 0 0 0 2.94 1.64h28.66a4 4 0 0 0 3-1.66S126.08 99.3 130.68 92c4 6.3 15.61 24.9 15.61 24.9a3.49 3.49 0 0 0 3 1.66h29.69a3.41 3.41 0 0 0 2.9-1.61 2.44 2.44 0 0 0 .32-1.61 4.61 4.61 0 0 0-.65-1.94s-28.66-42.83-30.87-46.37c1-1.29 8-11.6 15.13-21.58a3.41 3.41 0 0 0 2.9 1.61h37v68.26a3.25 3.25 0 0 0 3.24 3.24h26.73a3.26 3.26 0 0 0 3.26-3.24V47.06h23.18a3.25 3.25 0 0 0 3.27-3.24v71.51a3.27 3.27 0 0 0 3.29 3.23h26.71a3.27 3.27 0 0 0 3.3-3.23V90.15h6c1.65 2.59 18.47 27.12 18.47 27.12a3 3 0 0 0 2.64 1.29h29.18a3.76 3.76 0 0 0 2.63-1 3.76 3.76 0 0 0 2.63 1h76.24a3.3 3.3 0 0 0 3.29-3.3V92.48a3.3 3.3 0 0 0-3.29-3.31h-46.66v-7.83h42.74a3.28 3.28 0 0 0 3.29-3.27V57.18a3.29 3.29 0 0 0-3.29-3.27h-42.74v-7.83h46.66a3.3 3.3 0 0 0 3.29-3.3V19.95a3.26 3.26 0 0 0-3.26-3.25zM96.39 90.16a3 3 0 0 0-2.3-1H32.32v-7.83h42.74a3.28 3.28 0 0 0 3.29-3.27V57.18a3.29 3.29 0 0 0-3.29-3.27H32.32V45.1h47.64a3.31 3.31 0 0 0 3.29-3.29V22.73c2.3 3.29 26.94 40.46 29.24 43.42-.98 1.32-8.54 12.83-16.1 24.01zm226.67-35.42c0 2.66-.67 4.33-2.67 5.66-2 1.66-4.66 2.33-8.65 2.33h-14V46.08h13.65c3.67 0 6.66.66 8.66 2.33 1.33.67 3 2.33 3 6.33z"></path><path d="M626.5 45.77a3.28 3.28 0 0 0 3.28-3.26V31.39a4.59 4.59 0 0 0-.65-2l-8.16-11.43a3 3 0 0 0-2.61-1.3H551.1a3.28 3.28 0 0 0-3.27 3.26 3.26 3.26 0 0 0-3.26-3.26h-28.08a3.88 3.88 0 0 0-2.94 1.59s-16 25.46-20.56 32.32c-4.25-6.82-19.92-32.32-19.92-32.32a3.42 3.42 0 0 0-2.94-1.63h-28.08a3.27 3.27 0 0 0-3.26 3.26v95.37a3.28 3.28 0 0 0 3.26 3.27h25.8a3.29 3.29 0 0 0 3.26-3.33v-44.2c6.86 10.64 18.28 28.27 18.28 28.27a3.36 3.36 0 0 0 2.62 1.67h.67a3.38 3.38 0 0 0 2.61-1.33s11.75-18.3 18.94-28.94v44.59a3.29 3.29 0 0 0 3.26 3.33h26.19a3.3 3.3 0 0 0 3.29-3.3 3.31 3.31 0 0 0 3.28 3.3h76.25a3.31 3.31 0 0 0 3.28-3.3v-22.8a3.29 3.29 0 0 0-3.28-3.31h-46.67v-7.83h42.75a3.28 3.28 0 0 0 3.28-3.27V57.18a3.28 3.28 0 0 0-3.28-3.27h-42.75V46.1c5.92-.33 46.67-.33 46.67-.33z"></path><path d="M798.57 89.17h-47.34v-8.81h42.8a3.24 3.24 0 0 0 3.24-3.23v-21a3.26 3.26 0 0 0-3.24-3.23h-42.8v-7.83h46.69a3.29 3.29 0 0 0 3.27-3.27V19.06a3.35 3.35 0 0 0-3.35-3.34h-67.22a3 3 0 0 0-1.67.33c2.67-3.68 5.68-8.36 5.68-8.36a4.75 4.75 0 0 0 .67-2 3 3 0 0 0-.33-1.67 4.48 4.48 0 0 0-3-2H616.02a3.51 3.51 0 0 0-3 1.69 3.07 3.07 0 0 0-.34 1.68 4.75 4.75 0 0 0 .67 2l16.84 25.25a3.44 3.44 0 0 0 2.69 1.69h25.34v94.7a3.26 3.26 0 0 0 3.26 3.22h26.77a3.25 3.25 0 0 0 3.27-3.24V33.35h25.51a2.87 2.87 0 0 0 2.58-1.64s2.26-3.26 3.23-4.89c-.32.65-1.29 2.28-1.29 2.28a3.48 3.48 0 0 0-.65 1.63v84.52a3.26 3.26 0 0 0 3.23 3.27h73.82a3.29 3.29 0 0 0 3.27-3.27V92.44c.62-1.63-1.01-3.27-2.65-3.27z"></path><path d="M983.98 16.7h-26.74a3.27 3.27 0 0 0-3.26 3.29v32.94h-27.43v-33a3.25 3.25 0 0 0-3.23-3.26h-24.88a3.25 3.25 0 0 0-3.23 3.26v16.68c0-.33-.32-.33-.32-.65a92.13 92.13 0 0 0-7.43-8.49 52.19 52.19 0 0 0-9.7-6.86 45.06 45.06 0 0 0-11.63-4.24 62.4 62.4 0 0 0-13.89-1.63 56.38 56.38 0 0 0-21.33 3.91 46.85 46.85 0 0 0-16.8 11.43 49.6 49.6 0 0 0-11 17 56.07 56.07 0 0 0-4.2 20.89 49.44 49.44 0 0 0 4.2 20.9 49.85 49.85 0 0 0 11 16.65 52.5 52.5 0 0 0 16.48 11.1 54 54 0 0 0 20.36 3.92 66.94 66.94 0 0 0 14.86-1.64 68.78 68.78 0 0 0 12.28-4.89 43.33 43.33 0 0 0 9.69-7.51 90.84 90.84 0 0 0 7.43-8.49v17.24a3.26 3.26 0 0 0 3.23 3.27h24.85a3.28 3.28 0 0 0 3.26-3.27v-33h27.43v33a3.29 3.29 0 0 0 3.3 3.27h26.7a3.29 3.29 0 0 0 3.3-3.27V19.96a3.29 3.29 0 0 0-3.3-3.26zm-88.77 76.38-.32-.32-19.92-14.37a4.72 4.72 0 0 0-2-.65 3 3 0 0 0-2.61 1.3 59.25 59.25 0 0 1-4.24 4.58 21.06 21.06 0 0 1-4.25 3.26 11.5 11.5 0 0 1-4.57 2 29 29 0 0 1-5.88.65 19.72 19.72 0 0 1-7.83-1.63 17 17 0 0 1-6.21-4.57 30 30 0 0 1-4.24-7.18 26.58 26.58 0 0 1-1.63-8.82V67a28.14 28.14 0 0 1 1.63-8.81 20.18 20.18 0 0 1 4.24-7.18 14.76 14.76 0 0 1 6.21-4.57 19.73 19.73 0 0 1 7.83-1.64 19.32 19.32 0 0 1 10.12 2.62 28.84 28.84 0 0 1 8.17 7.51 3 3 0 0 0 2.61 1.3 4.86 4.86 0 0 0 2-.65l19.91-15.33c.33-.32 1-1 1-1.3z"></path></svg>